# xmcd
#
# Track frame offsets:
#	150
#	9584
#	25583
#	36856
#	53441
#	65831
#	80535
#	91854
#	107510
#	123540
#	135894
#	150675
#
# Disc length: 2248 seconds
#
# Revision: 0
# Processed by: cddbd v1.5.2PL0 Copyright (c) Steve Scherf et al.
# Submitted via: EasyCDDAExtractor 9.0.0.1
#
DISCID=8908c60c
DTITLE=Tommy Emmanuel c.g.p. - All I Want For Christmas
DYEAR=2011
DGENRE=Country
TTITLE0=Rudolph The Red-Nosed Reindeer
TTITLE1=White Christmas
TTITLE2=Jingle Bells
TTITLE3=The Christmas Song (Chestnuts Roasting On An Open Fire)
TTITLE4=Winter Wonderland
TTITLE5=Mary's Boy Child
TTITLE6=Santa Claus Is Coming To Town
TTITLE7=The Magic Of Christmas Time (Instrumental)
TTITLE8=One Christmas Night
TTITLE9=I'll Be Home For Christmas
TTITLE10=Silent Night
TTITLE11=How Great Thou Art
EXTD=
EXTT0=
EXTT1=
EXTT2=
EXTT3=
EXTT4=
EXTT5=
EXTT6=
EXTT7=
EXTT8=
EXTT9=
EXTT10=
EXTT11=
PLAYORDER=
